<mxfile host="65bd71144e">
    <diagram id="bSmVCd6Y5Aotvlpk1Q9e" name="Page-1">
        <mxGraphModel dx="812" dy="447" grid="1" gridSize="10" guides="1" tooltips="1" connect="1" arrows="1" fold="1" page="1" pageScale="1" pageWidth="850" pageHeight="1100" math="0" shadow="0">
            <root>
                <mxCell id="0"/>
                <mxCell id="1" parent="0"/>
                <mxCell id="2" value="Ravin's Shoppe" style="rounded=0;whiteSpace=wrap;html=1;" vertex="1" parent="1">
                    <mxGeometry x="230" y="50" width="270" height="40" as="geometry"/>
                </mxCell>
                <mxCell id="3" value="Header" style="rounded=1;whiteSpace=wrap;html=1;" vertex="1" parent="1">
                    <mxGeometry x="130" y="100" width="460" height="40" as="geometry"/>
                </mxCell>
                <mxCell id="5" value="" style="swimlane;whiteSpace=wrap;html=1;" vertex="1" parent="1">
                    <mxGeometry x="70" y="10" width="610" height="450" as="geometry"/>
                </mxCell>
                <mxCell id="6" value="Shop Stock" style="rounded=0;whiteSpace=wrap;html=1;" vertex="1" parent="5">
                    <mxGeometry x="70" y="100" width="100" height="20" as="geometry"/>
                </mxCell>
                <mxCell id="7" value="Stock List" style="rounded=0;whiteSpace=wrap;html=1;" vertex="1" parent="5">
                    <mxGeometry x="50" y="160" width="120" height="160" as="geometry"/>
                </mxCell>
                <mxCell id="12" value="Stock Details" style="rounded=0;whiteSpace=wrap;html=1;" vertex="1" parent="5">
                    <mxGeometry x="180" y="160" width="120" height="160" as="geometry"/>
                </mxCell>
                <mxCell id="13" value="Add new Stock Item" style="rounded=0;whiteSpace=wrap;html=1;" vertex="1" parent="5">
                    <mxGeometry x="310" y="160" width="120" height="160" as="geometry"/>
                </mxCell>
                <mxCell id="14" value="Edit Item" style="rounded=0;whiteSpace=wrap;html=1;" vertex="1" parent="5">
                    <mxGeometry x="440" y="160" width="120" height="160" as="geometry"/>
                </mxCell>
                <mxCell id="15" value="Buy&amp;nbsp;" style="rounded=0;whiteSpace=wrap;html=1;" vertex="1" parent="5">
                    <mxGeometry x="240" y="400" width="100" height="20" as="geometry"/>
                </mxCell>
            </root>
        </mxGraphModel>
    </diagram>
</mxfile>